<?xml version="1.0"?>
<svg width="16" height="16" xmlns="http://www.w3.org/2000/svg" xmlns:svg="http://www.w3.org/2000/svg">
 <g class="layer">
  <title>Layer 1</title>
  <g id="svg_14">
   <path class="ccustom" d="m0,8.01c0,-3.71 0,-5.56 1.17,-6.71c1.17,-1.15 3.05,-1.15 6.82,-1.15c3.77,0 5.65,0 6.82,1.15c1.17,1.15 1.17,3 1.17,6.71c0,3.71 0,5.56 -1.17,6.71c-1.17,1.15 -3.05,1.15 -6.82,1.15c-3.77,0 -5.65,0 -6.82,-1.15c-1.17,-1.15 -1.17,-3 -1.17,-6.71z" fill="#243A5A" id="svg_10"/>
   <path class="ccompli2" d="m9.6,10.37c0.22,0 0.4,0.18 0.36,0.39c-0.08,0.38 -0.26,0.73 -0.54,1c-0.38,0.37 -0.88,0.57 -1.42,0.57c-0.53,0 -1.04,-0.21 -1.42,-0.57c-0.28,-0.28 -0.47,-0.63 -0.54,-1c-0.04,-0.21 0.14,-0.39 0.36,-0.39l3.2,0z" fill="#2DF8BB" id="svg_11"/>
   <path class="ccompli2" d="m10.44,7.13c-0.21,0.06 -0.34,0.28 -0.24,0.46c0.12,0.2 0.27,0.37 0.46,0.51c0.3,0.21 0.67,0.31 1.04,0.29c0.37,-0.02 0.72,-0.17 0.99,-0.42c0.27,-0.25 0.44,-0.58 0.5,-0.94c0.05,-0.36 -0.03,-0.73 -0.23,-1.03c-0.2,-0.31 -0.5,-0.54 -0.84,-0.66c-0.35,-0.12 -0.73,-0.11 -1.08,0.02c-0.22,0.08 -0.42,0.21 -0.58,0.37c-0.16,0.15 -0.09,0.4 0.1,0.51l0.2,0.11c0.31,0.18 0.25,0.63 -0.1,0.72l-0.23,0.06z" fill="#2DF8BB" id="svg_12"/>
   <path class="ccompli2" d="m5.56,7.13c0.21,0.06 0.34,0.28 0.24,0.46c-0.12,0.2 -0.27,0.37 -0.46,0.51c-0.3,0.21 -0.67,0.31 -1.04,0.29c-0.37,-0.02 -0.72,-0.17 -0.99,-0.42c-0.27,-0.25 -0.44,-0.58 -0.5,-0.94c-0.05,-0.36 0.03,-0.73 0.23,-1.03c0.2,-0.31 0.5,-0.54 0.84,-0.66c0.35,-0.12 0.73,-0.11 1.08,0.02c0.22,0.08 0.42,0.21 0.58,0.37c0.16,0.15 0.09,0.4 -0.1,0.51l-0.2,0.11c-0.31,0.18 -0.25,0.63 0.1,0.72l0.23,0.06z" fill="#2DF8BB" id="svg_13"/>
  </g>
 </g>
</svg>